<svg width="23" height="23" viewBox="0 0 23 23" fill="none" xmlns="http://www.w3.org/2000/svg">
<g clip-path="url(#clip0_118_1245)">
<path d="M11.0571 1.46885C2.51622 1.46609 -1.7616 11.7907 4.276 17.8302C5.61635 19.1709 7.32419 20.084 9.18352 20.454C11.0428 20.824 12.9702 20.6344 14.7217 19.909C16.4732 19.1837 17.9703 17.9552 19.0236 16.3789C20.0769 14.8026 20.6391 12.9494 20.6391 11.0536C20.6391 5.76142 16.3503 1.4707 11.0571 1.46885ZM5.62946 6.24973C6.09105 3.85607 9.21627 3.21481 10.5826 5.23348C11.949 7.25216 10.1938 9.91578 7.80016 9.4551C7.4471 9.38728 7.11087 9.25055 6.81068 9.05273C6.51048 8.85491 6.25221 8.59988 6.05062 8.30221C5.84904 8.00453 5.70808 7.67005 5.63582 7.31787C5.56355 6.9657 5.56139 6.60274 5.62946 6.24973ZM9.61153 14.5308C9.14717 16.9235 6.02195 17.5602 4.65744 15.5406C3.29292 13.521 5.05085 10.8602 7.44452 11.3218C7.79761 11.39 8.1338 11.5271 8.43386 11.7254C8.73391 11.9236 8.99195 12.1791 9.19321 12.4771C9.39447 12.7751 9.53501 13.1099 9.60678 13.4623C9.67856 13.8147 9.68017 14.1778 9.61153 14.5308ZM10.7724 12.315C9.71103 12.1095 9.42541 10.7238 10.32 10.1157C11.2138 9.50762 12.3986 10.2816 12.1996 11.3448C12.1701 11.5024 12.1097 11.6525 12.022 11.7867C11.9342 11.9208 11.8208 12.0363 11.6882 12.1265C11.5557 12.2166 11.4066 12.2797 11.2496 12.3121C11.0926 12.3444 10.9298 12.3454 10.7724 12.315ZM16.4839 15.8511C16.0223 18.2448 12.8971 18.8851 11.5307 16.8673C10.1643 14.8496 11.9186 12.1851 14.3132 12.6448C14.6663 12.7126 15.0026 12.8494 15.3029 13.0473C15.6032 13.2451 15.8615 13.5003 16.0631 13.798C16.2647 14.0958 16.4056 14.4304 16.4778 14.7827C16.55 15.135 16.5521 15.498 16.4839 15.8511ZM14.6716 10.7818C12.2779 10.3202 11.6376 7.19227 13.6562 5.82499C15.6749 4.45771 18.3376 6.2138 17.8779 8.60746C17.8105 8.96094 17.674 9.29766 17.4763 9.59834C17.2786 9.89901 17.0236 10.1577 16.7257 10.3597C16.4279 10.5617 16.0932 10.7029 15.7407 10.7754C15.3882 10.8478 15.0249 10.85 14.6716 10.7818ZM12.5211 21.4345L14.6071 21.9965C15.4842 22.2292 16.4178 22.1041 17.2027 21.6487C17.9876 21.1933 18.5595 20.4448 18.7928 19.5678L19.3824 17.3547C17.7225 19.5663 15.2561 21.0327 12.5202 21.4345M19.5621 3.31616L17.3849 2.73663C18.485 3.58307 19.4061 4.63952 20.0947 5.8447C20.7834 7.04988 21.2258 8.37979 21.3965 9.7573L21.9954 7.49171C22.2246 6.61539 22.0971 5.68394 21.6408 4.90145C21.1846 4.11895 20.4367 3.54922 19.5612 3.31708M0.619168 12.7231L0.120718 14.6027C-0.112017 15.4798 0.0130802 16.4134 0.468507 17.1983C0.923933 17.9832 1.67241 18.5551 2.54939 18.7884L4.49067 19.3062C2.41813 17.6767 1.03643 15.3263 0.619168 12.7231ZM9.54243 0.647011L7.50901 0.116315C7.0744 0.000541733 6.62123 -0.0284406 6.17541 0.0310246C5.7296 0.0904898 5.29987 0.237236 4.9108 0.462876C4.52172 0.688515 4.18094 0.988623 3.90792 1.34604C3.6349 1.70346 3.43499 2.11119 3.31964 2.54591L2.81198 4.46416C4.48698 2.38002 6.894 1.01455 9.54243 0.647011Z" fill="white"/>
</g>
<defs>
<clipPath id="clip0_118_1245">
<rect width="22.1124" height="22.1124" fill="white"/>
</clipPath>
</defs>
</svg>
