<svg width="19" height="19" viewBox="0 0 19 19" fill="none" xmlns="http://www.w3.org/2000/svg">
<g clip-path="url(#clip0_160_677)">
<path d="M9.02818 1.19916C2.05435 1.19691 -1.43858 9.62719 3.49125 14.5585C4.58567 15.6532 5.98016 16.3988 7.49834 16.701C9.01653 17.0031 10.5902 16.8482 12.0204 16.256C13.4505 15.6637 14.673 14.6606 15.533 13.3735C16.393 12.0865 16.8521 10.5733 16.8521 9.02535C16.8521 4.70414 13.3502 1.20067 9.02818 1.19916ZM4.59638 5.10286C4.97328 3.14838 7.52508 2.62478 8.64075 4.27307C9.75641 5.92136 8.32328 8.09626 6.3688 7.72011C6.08052 7.66473 5.80598 7.55309 5.56086 7.39157C5.31575 7.23005 5.10487 7.0218 4.94027 6.77875C4.77567 6.53569 4.66057 6.26258 4.60157 5.97502C4.54256 5.68746 4.5408 5.39109 4.59638 5.10286ZM7.84782 11.8645C7.46866 13.8183 4.91686 14.3381 3.8027 12.6891C2.68854 11.04 4.12393 8.86737 6.07841 9.24427C6.36672 9.29998 6.64123 9.41196 6.88623 9.57383C7.13123 9.7357 7.34192 9.94428 7.50626 10.1876C7.67059 10.431 7.78534 10.7044 7.84395 10.9921C7.90256 11.2798 7.90387 11.5763 7.84782 11.8645ZM8.79572 10.0553C7.92907 9.88749 7.69586 8.75603 8.42634 8.25951C9.15607 7.76299 10.1235 8.39492 9.96104 9.26308C9.93694 9.39174 9.88764 9.51436 9.81599 9.6239C9.74433 9.73344 9.65172 9.82773 9.5435 9.90135C9.43527 9.97497 9.31355 10.0265 9.18535 10.0529C9.05715 10.0793 8.92424 10.0801 8.79572 10.0553ZM13.4592 12.9426C13.0823 14.8971 10.5305 15.4199 9.41487 13.7724C8.2992 12.1248 9.73158 9.94918 11.6868 10.3246C11.9752 10.3799 12.2498 10.4916 12.495 10.6532C12.7401 10.8148 12.951 11.0231 13.1157 11.2662C13.2803 11.5094 13.3953 11.7826 13.4543 12.0702C13.5132 12.3578 13.5149 12.6543 13.4592 12.9426ZM11.9795 8.80342C10.025 8.42652 9.50213 5.87246 11.1504 4.75604C12.7987 3.63963 14.9729 5.07352 14.5975 7.02799C14.5424 7.31662 14.431 7.59156 14.2696 7.83706C14.1082 8.08257 13.8999 8.29383 13.6567 8.45875C13.4136 8.62366 13.1402 8.73899 12.8524 8.79814C12.5646 8.85728 12.268 8.85908 11.9795 8.80342ZM10.2236 17.5015L11.9268 17.9604C12.643 18.1505 13.4053 18.0483 14.0462 17.6765C14.6871 17.3046 15.1541 16.6934 15.3445 15.9774L15.826 14.1703C14.4706 15.9762 12.4567 17.1734 10.2228 17.5015M15.9727 2.70753L14.195 2.23433C15.0932 2.92547 15.8453 3.78809 16.4076 4.77214C16.9699 5.75619 17.3312 6.8421 17.4705 7.96687L17.9595 6.11696C18.1467 5.40142 18.0426 4.64087 17.67 4.00195C17.2975 3.36303 16.6868 2.89783 15.9719 2.70828M0.505363 10.3885L0.0983685 11.9232C-0.0916645 12.6394 0.0104798 13.4017 0.382346 14.0426C0.754211 14.6835 1.36536 15.1505 2.08143 15.3409L3.66653 15.7637C1.97426 14.4332 0.846071 12.5141 0.505363 10.3885ZM7.7914 0.528112L6.13107 0.0947865C5.7762 0.000255303 5.40618 -0.0234094 5.04216 0.0251452C4.67814 0.0736998 4.32726 0.193522 4.00957 0.377761C3.69189 0.562001 3.41363 0.807045 3.1907 1.09889C2.96777 1.39073 2.80455 1.72364 2.71036 2.0786L2.29584 3.6449C3.66351 1.94315 5.6289 0.828218 7.7914 0.528112Z" fill="white"/>
</g>
<defs>
<clipPath id="clip0_160_677">
<rect width="18.0552" height="18.0552" fill="white"/>
</clipPath>
</defs>
</svg>
