<svg width="30" height="30" viewBox="0 0 30 30" fill="none" xmlns="http://www.w3.org/2000/svg">
<path d="M2.5 22.5V16.25C2.5 15.6875 2.61458 15.1771 2.84375 14.7187C3.07292 14.2604 3.375 13.8542 3.75 13.5V10C3.75 8.95833 4.11458 8.07292 4.84375 7.34375C5.57292 6.61458 6.45833 6.25 7.5 6.25H12.5C12.9792 6.25 13.4271 6.33875 13.8438 6.51625C14.2604 6.69375 14.6458 6.93833 15 7.25C15.3542 6.9375 15.7396 6.69292 16.1562 6.51625C16.5729 6.33958 17.0208 6.25083 17.5 6.25H22.5C23.5417 6.25 24.4271 6.61458 25.1562 7.34375C25.8854 8.07292 26.25 8.95833 26.25 10V13.5C26.625 13.8542 26.9271 14.2604 27.1562 14.7187C27.3854 15.1771 27.5 15.6875 27.5 16.25V22.5C27.5 22.8542 27.38 23.1512 27.14 23.3912C26.9 23.6312 26.6033 23.7508 26.25 23.75C25.8967 23.7492 25.6 23.6292 25.36 23.39C25.12 23.1508 25 22.8542 25 22.5V21.25H5V22.5C5 22.8542 4.88 23.1512 4.64 23.3912C4.4 23.6312 4.10333 23.7508 3.75 23.75C3.39667 23.7492 3.1 23.6292 2.86 23.39C2.62 23.1508 2.5 22.8542 2.5 22.5ZM16.25 12.5H23.75V10C23.75 9.64583 23.63 9.34917 23.39 9.11C23.15 8.87083 22.8533 8.75083 22.5 8.75H17.5C17.1458 8.75 16.8492 8.87 16.61 9.11C16.3708 9.35 16.2508 9.64667 16.25 10V12.5ZM6.25 12.5H13.75V10C13.75 9.64583 13.63 9.34917 13.39 9.11C13.15 8.87083 12.8533 8.75083 12.5 8.75H7.5C7.14583 8.75 6.84917 8.87 6.61 9.11C6.37083 9.35 6.25083 9.64667 6.25 10V12.5Z" fill="white"/>
</svg>
