<svg width="24" height="24" viewBox="0 0 24 24" fill="none" xmlns="http://www.w3.org/2000/svg">
<path d="M3.002 12.267C2.61966 12.4871 2.32082 12.8274 2.152 13.235C2 13.602 2 14.068 2 15C2 15.932 2 16.398 2.152 16.765C2.25251 17.0078 2.3999 17.2284 2.58572 17.4143C2.77155 17.6001 2.99218 17.7475 3.235 17.848C3.487 17.952 3.785 17.985 4.25 17.995V20C4.25 20.1989 4.32902 20.3897 4.46967 20.5303C4.61032 20.671 4.80109 20.75 5 20.75C5.19891 20.75 5.38968 20.671 5.53033 20.5303C5.67098 20.3897 5.75 20.1989 5.75 20V18H18.25V20C18.25 20.1989 18.329 20.3897 18.4697 20.5303C18.6103 20.671 18.8011 20.75 19 20.75C19.1989 20.75 19.3897 20.671 19.5303 20.5303C19.671 20.3897 19.75 20.1989 19.75 20V17.995C20.214 17.985 20.513 17.952 20.765 17.848C21.0078 17.7475 21.2284 17.6001 21.4143 17.4143C21.6001 17.2284 21.7475 17.0078 21.848 16.765C22 16.398 22 15.932 22 15C22 14.068 22 13.602 21.848 13.235C21.6792 12.8274 21.3803 12.4871 20.998 12.267L19.25 12H4.75L3.002 12.267Z" fill="#E7EBF6"/>
<path opacity="0.5" d="M10.998 4H12.998C16.768 4 18.654 4 19.826 5.172C20.849 6.194 20.979 7.76 20.996 10.649V12.266L19.25 12H4.75L3.002 12.267H3V10.65C3.017 7.761 3.147 6.195 4.17 5.173C5.34 4 7.225 4 10.997 4" fill="#E7EBF6"/>
<path d="M19 10.5C19 9.314 18.998 8.517 18.919 7.922C18.843 7.354 18.713 7.111 18.554 6.951C18.396 6.791 18.155 6.658 17.594 6.581C17.005 6.502 16.217 6.5 15.044 6.5H12.913V10.5H19ZM11.087 10.5V6.5H8.957C7.783 6.5 6.995 6.502 6.407 6.582C5.845 6.658 5.604 6.79 5.446 6.951C5.287 7.111 5.156 7.354 5.081 7.922C5.001 8.517 5 9.314 5 10.5H11.087Z" fill="#E7EBF6"/>
</svg>
