<svg width="30" height="30" viewBox="0 0 30 30" fill="none" xmlns="http://www.w3.org/2000/svg">
<path d="M9.68738 3.125C9.68738 2.87636 9.58861 2.6379 9.4128 2.46209C9.23698 2.28627 8.99852 2.1875 8.74988 2.1875C8.50124 2.1875 8.26279 2.28627 8.08697 2.46209C7.91115 2.6379 7.81238 2.87636 7.81238 3.125V5.1C6.01238 5.24375 4.83238 5.59625 3.96488 6.465C3.09613 7.3325 2.74363 8.51375 2.59863 10.3125H27.4011C27.2561 8.5125 26.9036 7.3325 26.0349 6.465C25.1674 5.59625 23.9861 5.24375 22.1874 5.09875V3.125C22.1874 2.87636 22.0886 2.6379 21.9128 2.46209C21.737 2.28627 21.4985 2.1875 21.2499 2.1875C21.0012 2.1875 20.7628 2.28627 20.587 2.46209C20.4112 2.6379 20.3124 2.87636 20.3124 3.125V5.01625C19.4811 5 18.5486 5 17.4999 5H12.4999C11.4511 5 10.5186 5 9.68738 5.01625V3.125Z" fill="white"/>
<path fill-rule="evenodd" clip-rule="evenodd" d="M27.5 15C27.5 13.9513 27.5 13.0188 27.4837 12.1875H2.51625C2.5 13.0188 2.5 13.9513 2.5 15V17.5C2.5 22.2137 2.5 24.5712 3.965 26.035C5.43 27.4987 7.78625 27.5 12.5 27.5H17.5C22.2137 27.5 24.5712 27.5 26.035 26.035C27.4987 24.57 27.5 22.2137 27.5 17.5V15ZM17.5 15.3125C16.9198 15.3125 16.3634 15.543 15.9532 15.9532C15.543 16.3634 15.3125 16.9198 15.3125 17.5V20C15.3125 20.5802 15.543 21.1366 15.9532 21.5468C16.3634 21.957 16.9198 22.1875 17.5 22.1875C18.0802 22.1875 18.6366 21.957 19.0468 21.5468C19.457 21.1366 19.6875 20.5802 19.6875 20V17.5C19.6875 16.9198 19.457 16.3634 19.0468 15.9532C18.6366 15.543 18.0802 15.3125 17.5 15.3125ZM17.5 17.1875C17.4171 17.1875 17.3376 17.2204 17.279 17.279C17.2204 17.3376 17.1875 17.4171 17.1875 17.5V20C17.1875 20.0829 17.2204 20.1624 17.279 20.221C17.3376 20.2796 17.4171 20.3125 17.5 20.3125C17.5829 20.3125 17.6624 20.2796 17.721 20.221C17.7796 20.1624 17.8125 20.0829 17.8125 20V17.5C17.8125 17.4171 17.7796 17.3376 17.721 17.279C17.6624 17.2204 17.5829 17.1875 17.5 17.1875ZM13.4837 15.3838C13.6551 15.4547 13.8015 15.5749 13.9045 15.7291C14.0075 15.8833 14.0625 16.0646 14.0625 16.25V21.25C14.0625 21.4986 13.9637 21.7371 13.7879 21.9129C13.6121 22.0887 13.3736 22.1875 13.125 22.1875C12.8764 22.1875 12.6379 22.0887 12.4621 21.9129C12.2863 21.7371 12.1875 21.4986 12.1875 21.25V18.5125L11.9125 18.7875C11.7348 18.9531 11.4997 19.0433 11.2568 19.039C11.014 19.0347 10.7822 18.9363 10.6105 18.7645C10.4387 18.5928 10.3403 18.361 10.336 18.1182C10.3317 17.8753 10.4219 17.6402 10.5875 17.4625L12.4625 15.5875C12.5935 15.4564 12.7605 15.3671 12.9422 15.3308C13.124 15.2945 13.3124 15.313 13.4837 15.3838Z" fill="white"/>
</svg>
