<svg width="24" height="24" viewBox="0 0 24 24" fill="none" xmlns="http://www.w3.org/2000/svg">
<path d="M6.96 2C7.378 2 7.716 2.31 7.716 2.692V4.09C8.386 4.078 9.138 4.078 9.984 4.078H14.016C14.862 4.078 15.613 4.078 16.284 4.09V2.692C16.284 2.31 16.622 2 17.04 2C17.458 2 17.796 2.31 17.796 2.692V4.15C19.246 4.256 20.199 4.518 20.899 5.158C21.599 5.799 21.884 6.671 22 8V9H2V8C2.116 6.671 2.401 5.8 3.101 5.158C3.801 4.518 4.753 4.256 6.204 4.15V2.692C6.204 2.31 6.543 2 6.96 2Z" fill="#E7EBF6"/>
<path opacity="0.5" d="M22 14V12C22 11.161 21.987 9.665 21.974 9H2.00599C1.99299 9.665 2.00599 11.161 2.00599 12V14C2.00599 17.771 2.00599 19.657 3.17599 20.828C4.34899 22 6.23399 22 10.004 22H14.004C17.774 22 19.658 22 20.83 20.828C22.002 19.656 22 17.771 22 14Z" fill="#E7EBF6"/>
<path fill-rule="evenodd" clip-rule="evenodd" d="M14 12.25C13.5359 12.25 13.0908 12.4344 12.7626 12.7626C12.4344 13.0908 12.25 13.5359 12.25 14V16C12.25 16.4641 12.4344 16.9092 12.7626 17.2374C13.0908 17.5656 13.5359 17.75 14 17.75C14.4641 17.75 14.9092 17.5656 15.2374 17.2374C15.5656 16.9092 15.75 16.4641 15.75 16V14C15.75 13.5359 15.5656 13.0908 15.2374 12.7626C14.9092 12.4344 14.4641 12.25 14 12.25ZM14 13.75C13.9337 13.75 13.8701 13.7763 13.8232 13.8232C13.7763 13.8701 13.75 13.9337 13.75 14V16C13.75 16.0663 13.7763 16.1299 13.8232 16.1768C13.8701 16.2237 13.9337 16.25 14 16.25C14.0663 16.25 14.1299 16.2237 14.1768 16.1768C14.2237 16.1299 14.25 16.0663 14.25 16V14C14.25 13.9337 14.2237 13.8701 14.1768 13.8232C14.1299 13.7763 14.0663 13.75 14 13.75Z" fill="#E7EBF6"/>
<path d="M11.25 13C11.2499 12.8517 11.2058 12.7068 11.1234 12.5836C11.041 12.4604 10.9239 12.3644 10.7869 12.3077C10.65 12.251 10.4993 12.2361 10.3539 12.265C10.2085 12.2939 10.0749 12.3652 9.97 12.47L8.47 13.97C8.33752 14.1121 8.2654 14.3002 8.26882 14.4945C8.27225 14.6888 8.35097 14.8742 8.48838 15.0116C8.62579 15.149 8.81118 15.2277 9.00548 15.2311C9.19978 15.2346 9.38782 15.1624 9.53 15.03L9.75 14.81V17C9.75 17.1989 9.82902 17.3896 9.96967 17.5303C10.1103 17.6709 10.3011 17.75 10.5 17.75C10.6989 17.75 10.8897 17.6709 11.0303 17.5303C11.171 17.3896 11.25 17.1989 11.25 17V13Z" fill="#E7EBF6"/>
</svg>
