<svg width="30" height="30" viewBox="0 0 30 30" fill="none" xmlns="http://www.w3.org/2000/svg">
<path d="M22.3123 24.9375L16.7811 19.4063L19.4061 16.7813L24.9373 22.3125C25.2915 22.6667 25.4686 23.1042 25.4686 23.625C25.4686 24.1458 25.2915 24.5833 24.9373 24.9375C24.5832 25.2917 24.1457 25.4688 23.6248 25.4688C23.104 25.4688 22.6665 25.2917 22.3123 24.9375ZM5.06234 24.9375C4.70817 24.5833 4.53109 24.1458 4.53109 23.625C4.53109 23.1042 4.70817 22.6667 5.06234 22.3125L12.3748 15L10.2498 12.875C10.0207 13.1042 9.729 13.2188 9.37484 13.2188C9.02067 13.2188 8.729 13.1042 8.49984 12.875L7.78109 12.1563V14.9688C7.78109 15.2604 7.65609 15.4583 7.40609 15.5625C7.15609 15.6667 6.92692 15.6146 6.71859 15.4063L3.31234 12C3.104 11.7917 3.05192 11.5625 3.15609 11.3125C3.26025 11.0625 3.45817 10.9375 3.74984 10.9375H6.56234L5.87484 10.25C5.62484 10 5.49984 9.70833 5.49984 9.375C5.49984 9.04167 5.62484 8.75 5.87484 8.5L9.43734 4.9375C9.854 4.52083 10.3019 4.21875 10.7811 4.03125C11.2603 3.84375 11.7498 3.75 12.2498 3.75C12.6665 3.75 13.0573 3.8125 13.4223 3.9375C13.7873 4.0625 14.1465 4.25 14.4998 4.5C14.6665 4.60417 14.7553 4.75 14.7661 4.9375C14.7769 5.125 14.709 5.29167 14.5623 5.4375L12.1873 7.8125L12.8748 8.5C13.104 8.72917 13.2186 9.02083 13.2186 9.375C13.2186 9.72917 13.104 10.0208 12.8748 10.25L14.9998 12.375L17.8123 9.5625C17.729 9.33333 17.6615 9.09375 17.6098 8.84375C17.5582 8.59375 17.5319 8.34375 17.5311 8.09375C17.5311 6.86458 17.9532 5.82792 18.7973 4.98375C19.6415 4.13958 20.6778 3.71792 21.9061 3.71875C22.0728 3.71875 22.229 3.72417 22.3748 3.735C22.5207 3.74583 22.6665 3.77167 22.8123 3.8125C22.9998 3.875 23.1198 4.00542 23.1723 4.20375C23.2248 4.40208 23.1778 4.57375 23.0311 4.71875L20.9998 6.75C20.8748 6.875 20.8123 7.02083 20.8123 7.1875C20.8123 7.35417 20.8748 7.5 20.9998 7.625L22.3748 9C22.4998 9.125 22.6457 9.1875 22.8123 9.1875C22.979 9.1875 23.1248 9.125 23.2498 9L25.2811 6.96875C25.4269 6.82292 25.599 6.77083 25.7973 6.8125C25.9957 6.85417 26.1257 6.97917 26.1873 7.1875C26.229 7.33333 26.2553 7.47917 26.2661 7.625C26.2769 7.77083 26.2819 7.92708 26.2811 8.09375C26.2811 9.32292 25.8594 10.3592 25.0161 11.2025C24.1728 12.0458 23.1361 12.4679 21.9061 12.4688C21.6561 12.4688 21.4061 12.4479 21.1561 12.4063C20.9061 12.3646 20.6665 12.2917 20.4373 12.1875L7.68734 24.9375C7.33317 25.2917 6.89567 25.4688 6.37484 25.4688C5.854 25.4688 5.4165 25.2917 5.06234 24.9375Z" fill="white"/>
</svg>
