<svg width="23" height="23" viewBox="0 0 23 23" fill="none" xmlns="http://www.w3.org/2000/svg">
<path fill-rule="evenodd" clip-rule="evenodd" d="M14.7416 2.76416C15.9634 2.76416 17.1351 3.24951 17.999 4.11344C18.863 4.97738 19.3483 6.14912 19.3483 7.3709V14.7417C19.3483 15.9635 18.863 17.1352 17.999 17.9991C17.1351 18.8631 15.9634 19.3484 14.7416 19.3484H7.37078C6.149 19.3484 4.97725 18.8631 4.11332 17.9991C3.24939 17.1352 2.76404 15.9635 2.76404 14.7417V7.3709C2.76404 6.14912 3.24939 4.97738 4.11332 4.11344C4.97725 3.24951 6.149 2.76416 7.37078 2.76416H14.7416ZM14.7416 4.60686H7.37078C6.63771 4.60686 5.93466 4.89807 5.4163 5.41643C4.89795 5.93479 4.60673 6.63783 4.60673 7.3709V14.7417C4.60673 15.4748 4.89795 16.1778 5.4163 16.6962C5.93466 17.2145 6.63771 17.5057 7.37078 17.5057H14.7416C15.4746 17.5057 16.1777 17.2145 16.696 16.6962C17.2144 16.1778 17.5056 15.4748 17.5056 14.7417V7.3709C17.5056 6.63783 17.2144 5.93479 16.696 5.41643C16.1777 4.89807 15.4746 4.60686 14.7416 4.60686ZM11.0562 7.3709C12.0336 7.3709 12.971 7.75918 13.6621 8.45033C14.3533 9.14147 14.7416 10.0789 14.7416 11.0563C14.7416 12.0337 14.3533 12.9711 13.6621 13.6623C12.971 14.3534 12.0336 14.7417 11.0562 14.7417C10.0787 14.7417 9.14135 14.3534 8.45021 13.6623C7.75906 12.9711 7.37078 12.0337 7.37078 11.0563C7.37078 10.0789 7.75906 9.14147 8.45021 8.45033C9.14135 7.75918 10.0787 7.3709 11.0562 7.3709ZM11.0562 9.2136C10.5675 9.2136 10.0988 9.40774 9.75319 9.75331C9.40762 10.0989 9.21348 10.5676 9.21348 11.0563C9.21348 11.545 9.40762 12.0137 9.75319 12.3593C10.0988 12.7049 10.5675 12.899 11.0562 12.899C11.5449 12.899 12.0136 12.7049 12.3592 12.3593C12.7047 12.0137 12.8989 11.545 12.8989 11.0563C12.8989 10.5676 12.7047 10.0989 12.3592 9.75331C12.0136 9.40774 11.5449 9.2136 11.0562 9.2136ZM15.2022 5.98888C15.4466 5.98888 15.6809 6.08595 15.8537 6.25874C16.0265 6.43152 16.1236 6.66587 16.1236 6.91023C16.1236 7.15458 16.0265 7.38893 15.8537 7.56172C15.6809 7.73451 15.4466 7.83158 15.2022 7.83158C14.9579 7.83158 14.7235 7.73451 14.5507 7.56172C14.378 7.38893 14.2809 7.15458 14.2809 6.91023C14.2809 6.66587 14.378 6.43152 14.5507 6.25874C14.7235 6.08595 14.9579 5.98888 15.2022 5.98888Z" fill="white"/>
</svg>
