<svg width="22" height="22" viewBox="0 0 22 22" fill="none" xmlns="http://www.w3.org/2000/svg">
<path d="M14.0427 2.63306C15.2066 2.63306 16.3228 3.09541 17.1458 3.9184C17.9688 4.74138 18.4311 5.8576 18.4311 7.02148V14.043C18.4311 15.2068 17.9688 16.3231 17.1458 17.146C16.3228 17.969 15.2066 18.4314 14.0427 18.4314H7.02124C5.85735 18.4314 4.74114 17.969 3.91815 17.146C3.09516 16.3231 2.63281 15.2068 2.63281 14.043V7.02148C2.63281 5.8576 3.09516 4.74138 3.91815 3.9184C4.74114 3.09541 5.85735 2.63306 7.02124 2.63306H14.0427ZM10.532 7.02148C9.60087 7.02148 8.7079 7.39136 8.04951 8.04975C7.39112 8.70814 7.02124 9.60111 7.02124 10.5322C7.02124 11.4633 7.39112 12.3563 8.04951 13.0147C8.7079 13.6731 9.60087 14.043 10.532 14.043C11.4631 14.043 12.3561 13.6731 13.0144 13.0147C13.6728 12.3563 14.0427 11.4633 14.0427 10.5322C14.0427 9.60111 13.6728 8.70814 13.0144 8.04975C12.3561 7.39136 11.4631 7.02148 10.532 7.02148ZM10.532 8.77685C10.9975 8.77685 11.444 8.96179 11.7732 9.29099C12.1024 9.62018 12.2873 10.0667 12.2873 10.5322C12.2873 10.9978 12.1024 11.4443 11.7732 11.7735C11.444 12.1026 10.9975 12.2876 10.532 12.2876C10.0664 12.2876 9.61994 12.1026 9.29074 11.7735C8.96155 11.4443 8.77661 10.9978 8.77661 10.5322C8.77661 10.0667 8.96155 9.62018 9.29074 9.29099C9.61994 8.96179 10.0664 8.77685 10.532 8.77685ZM14.4816 5.70495C14.2488 5.70495 14.0255 5.79742 13.8609 5.96202C13.6963 6.12662 13.6039 6.34986 13.6039 6.58264C13.6039 6.81541 13.6963 7.03866 13.8609 7.20325C14.0255 7.36785 14.2488 7.46032 14.4816 7.46032C14.7143 7.46032 14.9376 7.36785 15.1022 7.20325C15.2668 7.03866 15.3592 6.81541 15.3592 6.58264C15.3592 6.34986 15.2668 6.12662 15.1022 5.96202C14.9376 5.79742 14.7143 5.70495 14.4816 5.70495Z" fill="white"/>
</svg>
