<svg width="23" height="23" viewBox="0 0 23 23" fill="none" xmlns="http://www.w3.org/2000/svg">
<path d="M3.68541 5.52817C4.7031 5.52817 5.52811 4.70316 5.52811 3.68547C5.52811 2.66778 4.7031 1.84277 3.68541 1.84277C2.66772 1.84277 1.84271 2.66778 1.84271 3.68547C1.84271 4.70316 2.66772 5.52817 3.68541 5.52817Z" stroke="white" stroke-width="2" stroke-linecap="round" stroke-linejoin="round"/>
<path d="M1.84271 8.29244H5.52811V19.3486H1.84271V8.29244ZM20.2697 19.3486H16.5843V12.8992C16.5843 12.4105 16.3901 11.9418 16.0446 11.5962C15.699 11.2506 15.2303 11.0565 14.7416 11.0565C14.2529 11.0565 13.7842 11.2506 13.4386 11.5962C13.093 11.9418 12.8989 12.4105 12.8989 12.8992V19.3486H9.2135V12.8992C9.2135 11.433 9.79592 10.027 10.8326 8.99023C11.8694 7.95352 13.2754 7.37109 14.7416 7.37109C16.2077 7.37109 17.6138 7.95352 18.6505 8.99023C19.6873 10.027 20.2697 11.433 20.2697 12.8992V19.3486Z" stroke="white" stroke-width="2" stroke-linecap="round" stroke-linejoin="round"/>
</svg>
