<svg width="30" height="30" viewBox="0 0 30 30" fill="none" xmlns="http://www.w3.org/2000/svg">
<path d="M8.75 26.25H5C4.3125 26.25 3.72417 26.0054 3.235 25.5163C2.74583 25.0271 2.50083 24.4383 2.5 23.75V12.5C2.5 12.1042 2.58875 11.7292 2.76625 11.375C2.94375 11.0208 3.18833 10.7292 3.5 10.5L11 4.875C11.2292 4.70833 11.4688 4.58333 11.7188 4.5C11.9688 4.41667 12.2292 4.375 12.5 4.375C12.7708 4.375 13.0312 4.41667 13.2812 4.5C13.5312 4.58333 13.7708 4.70833 14 4.875L18.125 8C18.3333 8.16667 18.4117 8.375 18.36 8.625C18.3083 8.875 18.1467 9.04167 17.875 9.125C17.0625 9.41667 16.3438 9.85958 15.7188 10.4537C15.0938 11.0479 14.6042 11.7404 14.25 12.5312C13.8958 13.3221 13.7238 14.1504 13.7338 15.0162C13.7438 15.8821 13.9263 16.71 14.2812 17.5C14.3854 17.7708 14.3908 18.0367 14.2975 18.2975C14.2042 18.5583 14.0321 18.7404 13.7812 18.8438C12.9062 19.2396 12.2396 19.625 11.7812 20C11.3229 20.375 10.9479 20.8333 10.6562 21.375C10.4271 21.75 10.2604 22.1512 10.1562 22.5788C10.0521 23.0063 10 23.4383 10 23.875V25C10 25.3542 9.88 25.6512 9.64 25.8912C9.4 26.1312 9.10333 26.2508 8.75 26.25ZM20 20C21.125 20 22.2138 20.1458 23.2663 20.4375C24.3188 20.7292 25.3237 21.1562 26.2812 21.7188C26.6562 21.9479 26.9533 22.2554 27.1725 22.6413C27.3917 23.0271 27.5008 23.4383 27.5 23.875C27.5 24.5417 27.2708 25.1042 26.8125 25.5625C26.3542 26.0208 25.7917 26.25 25.125 26.25H14.875C14.2083 26.25 13.6458 26.0208 13.1875 25.5625C12.7292 25.1042 12.5 24.5417 12.5 23.875C12.5 23.4375 12.6096 23.0258 12.8287 22.64C13.0479 22.2542 13.3446 21.9471 13.7188 21.7188C14.6771 21.1562 15.6825 20.7292 16.735 20.4375C17.7875 20.1458 18.8758 20 20 20ZM20 18.75C18.9583 18.75 18.0729 18.3854 17.3438 17.6562C16.6146 16.9271 16.25 16.0417 16.25 15C16.25 13.9583 16.6146 13.0729 17.3438 12.3438C18.0729 11.6146 18.9583 11.25 20 11.25C21.0417 11.25 21.9271 11.6146 22.6562 12.3438C23.3854 13.0729 23.75 13.9583 23.75 15C23.75 16.0417 23.3854 16.9271 22.6562 17.6562C21.9271 18.3854 21.0417 18.75 20 18.75Z" fill="white"/>
</svg>
