<svg width="30" height="30" viewBox="0 0 30 30" fill="none" xmlns="http://www.w3.org/2000/svg">
<path d="M11.25 15V17.5M7.5 15V18.75M15 15V18.75M22.5 15V18.75M18.75 15V17.5M3.75 3.75V8.75M3.75 6.25H26.25M26.25 3.75V8.75M24.8438 15C25.62 15 26.25 15.64 26.25 16.4287V23.5713C26.25 24.36 25.62 25 24.8438 25H5C4.66848 25 4.35054 24.8683 4.11612 24.6339C3.8817 24.3995 3.75 24.0815 3.75 23.75V16.4287C3.75 15.64 4.38 15 5.15625 15H24.8438Z" stroke="white" stroke-width="2" stroke-linecap="round" stroke-linejoin="round"/>
</svg>
