<svg width="27" height="27" viewBox="0 0 27 27" fill="none" xmlns="http://www.w3.org/2000/svg">
<path d="M13.861 2.37035C11.3485 -0.142147 7.58598 -0.654647 4.56098 0.820353L9.09848 5.35785C9.58598 5.84535 9.58598 6.63285 9.09848 7.12035L7.11098 9.10785C6.62348 9.60785 5.83598 9.60785 5.34848 9.10785L0.810978 4.57035C-0.651522 7.60785 -0.139022 11.3454 2.37348 13.8579C3.48007 14.9603 4.88057 15.7209 6.40776 16.049C7.93494 16.377 9.52428 16.2586 10.986 15.7079L20.936 25.6579C21.2396 25.9639 21.6008 26.2068 21.9988 26.3726C22.3968 26.5384 22.8236 26.6237 23.2547 26.6237C23.6858 26.6237 24.1127 26.5384 24.5107 26.3726C24.9086 26.2068 25.2698 25.9639 25.5735 25.6579C25.8795 25.3542 26.1224 24.993 26.2882 24.595C26.454 24.1971 26.5393 23.7702 26.5393 23.3391C26.5393 22.908 26.454 22.4811 26.2882 22.0832C26.1224 21.6852 25.8795 21.324 25.5735 21.0204L15.6735 11.1079C16.8235 8.18285 16.2235 4.73285 13.861 2.37035Z" fill="white"/>
</svg>
