<svg width="21" height="21" viewBox="0 0 21 21" fill="none" xmlns="http://www.w3.org/2000/svg">
<path fill-rule="evenodd" clip-rule="evenodd" d="M9.18748 1.75C8.0015 1.7501 6.83273 2.03382 5.7787 2.57748C4.72467 3.12115 3.81593 3.90899 3.12831 4.87528C2.44068 5.84158 1.99411 6.9583 1.82585 8.13229C1.65758 9.30627 1.77251 10.5035 2.16103 11.624C2.54956 12.7445 3.20042 13.7559 4.05931 14.5738C4.9182 15.3916 5.96022 15.9922 7.09843 16.3254C8.23664 16.6586 9.43803 16.7148 10.6024 16.4893C11.7667 16.2638 12.8602 15.7631 13.7917 15.029L16.9872 18.2245C17.1523 18.3839 17.3733 18.4721 17.6027 18.4701C17.8321 18.4681 18.0516 18.3761 18.2138 18.2138C18.3761 18.0516 18.4681 17.8321 18.4701 17.6027C18.4721 17.3733 18.3839 17.1523 18.2245 16.9873L15.029 13.7918C15.8935 12.695 16.4317 11.3771 16.5822 9.98876C16.7326 8.60042 16.4892 7.19777 15.8797 5.94133C15.2702 4.6849 14.3193 3.62544 13.1357 2.8842C11.9522 2.14297 10.5839 1.74991 9.18748 1.75ZM3.49998 9.1875C3.49998 7.67908 4.09919 6.23244 5.16581 5.16583C6.23242 4.09922 7.67906 3.5 9.18748 3.5C10.6959 3.5 12.1425 4.09922 13.2091 5.16583C14.2758 6.23244 14.875 7.67908 14.875 9.1875C14.875 10.6959 14.2758 12.1426 13.2091 13.2092C12.1425 14.2758 10.6959 14.875 9.18748 14.875C7.67906 14.875 6.23242 14.2758 5.16581 13.2092C4.09919 12.1426 3.49998 10.6959 3.49998 9.1875Z" fill="#1D1D1D"/>
</svg>
