<svg width="30" height="30" viewBox="0 0 30 30" fill="none" xmlns="http://www.w3.org/2000/svg">
<path d="M7.03125 25.3125C7.03125 25.4368 6.98186 25.556 6.89396 25.644C6.80605 25.7319 6.68682 25.7812 6.5625 25.7812H5.625C5.25204 25.7812 4.89435 25.6331 4.63063 25.3694C4.36691 25.1056 4.21875 24.748 4.21875 24.375V23.4375C4.21875 23.3132 4.26814 23.194 4.35604 23.106C4.44395 23.0181 4.56318 22.9688 4.6875 22.9688C4.81182 22.9688 4.93105 23.0181 5.01896 23.106C5.10686 23.194 5.15625 23.3132 5.15625 23.4375V24.375C5.15625 24.4993 5.20564 24.6185 5.29354 24.7065C5.38145 24.7944 5.50068 24.8438 5.625 24.8438H6.5625C6.68682 24.8438 6.80605 24.8931 6.89396 24.981C6.98186 25.069 7.03125 25.1882 7.03125 25.3125ZM13.125 24.8438H11.25C11.1257 24.8438 11.0065 24.8931 10.9185 24.981C10.8306 25.069 10.7812 25.1882 10.7812 25.3125C10.7812 25.4368 10.8306 25.556 10.9185 25.644C11.0065 25.7319 11.1257 25.7812 11.25 25.7812H13.125C13.2493 25.7812 13.3685 25.7319 13.4565 25.644C13.5444 25.556 13.5938 25.4368 13.5938 25.3125C13.5938 25.1882 13.5444 25.069 13.4565 24.981C13.3685 24.8931 13.2493 24.8438 13.125 24.8438ZM4.6875 19.2188C4.81182 19.2188 4.93105 19.1694 5.01896 19.0815C5.10686 18.9935 5.15625 18.8743 5.15625 18.75V16.875C5.15625 16.7507 5.10686 16.6315 5.01896 16.5435C4.93105 16.4556 4.81182 16.4062 4.6875 16.4062C4.56318 16.4062 4.44395 16.4556 4.35604 16.5435C4.26814 16.6315 4.21875 16.7507 4.21875 16.875V18.75C4.21875 18.8743 4.26814 18.9935 4.35604 19.0815C4.44395 19.1694 4.56318 19.2188 4.6875 19.2188ZM19.6875 22.9688C19.5632 22.9688 19.444 23.0181 19.356 23.106C19.2681 23.194 19.2188 23.3132 19.2188 23.4375V24.375C19.2188 24.4993 19.1694 24.6185 19.0815 24.7065C18.9935 24.7944 18.8743 24.8438 18.75 24.8438H17.8125C17.6882 24.8438 17.569 24.8931 17.481 24.981C17.3931 25.069 17.3438 25.1882 17.3438 25.3125C17.3438 25.4368 17.3931 25.556 17.481 25.644C17.569 25.7319 17.6882 25.7812 17.8125 25.7812H18.75C19.123 25.7812 19.4806 25.6331 19.7444 25.3694C20.0081 25.1056 20.1562 24.748 20.1562 24.375V23.4375C20.1562 23.3132 20.1069 23.194 20.019 23.106C19.931 23.0181 19.8118 22.9688 19.6875 22.9688ZM19.6875 12.6562C19.8118 12.6562 19.931 12.6069 20.019 12.519C20.1069 12.431 20.1562 12.3118 20.1562 12.1875V11.25C20.1562 10.877 20.0081 10.5194 19.7444 10.2556C19.4806 9.99191 19.123 9.84375 18.75 9.84375H17.8125C17.6882 9.84375 17.569 9.89314 17.481 9.98104C17.3931 10.069 17.3438 10.1882 17.3438 10.3125C17.3438 10.4368 17.3931 10.556 17.481 10.644C17.569 10.7319 17.6882 10.7812 17.8125 10.7812H18.75C18.8743 10.7812 18.9935 10.8306 19.0815 10.9185C19.1694 11.0065 19.2188 11.1257 19.2188 11.25V12.1875C19.2188 12.3118 19.2681 12.431 19.356 12.519C19.444 12.6069 19.5632 12.6562 19.6875 12.6562ZM6.5625 9.84375H5.625C5.25204 9.84375 4.89435 9.99191 4.63063 10.2556C4.36691 10.5194 4.21875 10.877 4.21875 11.25V12.1875C4.21875 12.3118 4.26814 12.431 4.35604 12.519C4.44395 12.6069 4.56318 12.6562 4.6875 12.6562C4.81182 12.6562 4.93105 12.6069 5.01896 12.519C5.10686 12.431 5.15625 12.3118 5.15625 12.1875V11.25C5.15625 11.1257 5.20564 11.0065 5.29354 10.9185C5.38145 10.8306 5.50068 10.7812 5.625 10.7812H6.5625C6.68682 10.7812 6.80605 10.7319 6.89396 10.644C6.98186 10.556 7.03125 10.4368 7.03125 10.3125C7.03125 10.1882 6.98186 10.069 6.89396 9.98104C6.80605 9.89314 6.68682 9.84375 6.5625 9.84375ZM24.375 4.21875H11.25C10.877 4.21875 10.5194 4.36691 10.2556 4.63063C9.99191 4.89435 9.84375 5.25204 9.84375 5.625V10.3125C9.84375 10.4368 9.89314 10.556 9.98104 10.644C10.069 10.7319 10.1882 10.7812 10.3125 10.7812H13.125C13.2493 10.7812 13.3685 10.7319 13.4565 10.644C13.5444 10.556 13.5938 10.4368 13.5938 10.3125C13.5938 10.1882 13.5444 10.069 13.4565 9.98104C13.3685 9.89314 13.2493 9.84375 13.125 9.84375H10.7812V5.625C10.7812 5.50068 10.8306 5.38145 10.9185 5.29354C11.0065 5.20564 11.1257 5.15625 11.25 5.15625H24.375C24.4993 5.15625 24.6185 5.20564 24.7065 5.29354C24.7944 5.38145 24.8438 5.50068 24.8438 5.625V18.75C24.8438 18.8743 24.7944 18.9935 24.7065 19.0815C24.6185 19.1694 24.4993 19.2188 24.375 19.2188H20.1562V16.875C20.1562 16.7507 20.1069 16.6315 20.019 16.5435C19.931 16.4556 19.8118 16.4062 19.6875 16.4062C19.5632 16.4062 19.444 16.4556 19.356 16.5435C19.2681 16.6315 19.2188 16.7507 19.2188 16.875V19.6875C19.2193 19.8015 19.2614 19.9113 19.3371 19.9965C19.4128 20.0817 19.517 20.1364 19.6301 20.1504C19.6489 20.1545 19.6682 20.1565 19.6875 20.1562H24.375C24.748 20.1562 25.1056 20.0081 25.3694 19.7444C25.6331 19.4806 25.7812 19.123 25.7812 18.75V5.625C25.7812 5.25204 25.6331 4.89435 25.3694 4.63063C25.1056 4.36691 24.748 4.21875 24.375 4.21875Z" fill="white"/>
</svg>
