<svg width="21" height="21" viewBox="0 0 21 21" fill="none" xmlns="http://www.w3.org/2000/svg">
<path d="M10.1563 1.69263C5.48447 1.69263 1.69287 5.48422 1.69287 10.156C1.69287 14.8278 5.48447 18.6194 10.1563 18.6194C14.828 18.6194 18.6196 14.8278 18.6196 10.156C18.6196 5.48422 14.828 1.69263 10.1563 1.69263ZM14.0833 7.44773C13.9563 8.78495 13.4062 12.0349 13.1269 13.5329C13.0084 14.1677 12.7714 14.3792 12.5514 14.4046C12.0605 14.447 11.6881 14.083 11.2142 13.7699C10.4694 13.279 10.0462 12.9743 9.32685 12.5004C8.48897 11.9503 9.03063 11.6456 9.51304 11.1547C9.63999 11.0277 11.8066 9.05577 11.8489 8.87804C11.8548 8.85112 11.854 8.82318 11.8467 8.79663C11.8393 8.77008 11.8255 8.74573 11.8066 8.7257C11.7558 8.68339 11.6881 8.70031 11.6289 8.70878C11.5527 8.7257 10.3678 9.5128 8.05734 11.0701C7.7188 11.2986 7.41412 11.4171 7.14329 11.4086C6.83861 11.4001 6.2631 11.2393 5.83147 11.0955C5.29827 10.9262 4.88357 10.8331 4.91742 10.5369C4.93435 10.3845 5.14593 10.2322 5.54371 10.0714C8.01502 8.99653 9.65692 8.28561 10.4779 7.94707C12.8307 6.96532 13.3131 6.79605 13.6347 6.79605C13.7024 6.79605 13.8632 6.81298 13.9648 6.89761C14.0494 6.96532 14.0748 7.05841 14.0833 7.12612C14.0748 7.1769 14.0917 7.32924 14.0833 7.44773Z" fill="white"/>
</svg>
