<svg width="23" height="23" viewBox="0 0 23 23" fill="none" xmlns="http://www.w3.org/2000/svg">
<path d="M18.4031 4.22044C18.5248 4.07828 18.585 3.89359 18.5706 3.70701C18.5561 3.52042 18.4681 3.34723 18.326 3.22552C18.1838 3.10381 17.9991 3.04356 17.8125 3.05802C17.626 3.07248 17.4528 3.16047 17.331 3.30263L12.2831 9.20255L7.37058 3.6186C7.21002 3.4396 7.01317 3.29687 6.79313 3.19991C6.5731 3.10294 6.33493 3.05397 6.09449 3.05625H4.70837C4.06892 3.05625 3.51974 3.38726 3.24139 3.88848C3.0929 4.15459 3.03155 4.46053 3.06597 4.76331C3.10038 5.06609 3.22881 5.35046 3.43322 5.57646L9.34443 12.2973L4.16578 18.3487C4.10551 18.419 4.0597 18.5006 4.03096 18.5887C4.00222 18.6768 3.99112 18.7697 3.99828 18.8621C4.00544 18.9545 4.03072 19.0445 4.07269 19.1272C4.11467 19.2098 4.1725 19.2833 4.24289 19.3436C4.31328 19.4038 4.39485 19.4496 4.48294 19.4784C4.57104 19.5071 4.66393 19.5182 4.75632 19.5111C4.8487 19.5039 4.93877 19.4786 5.02139 19.4367C5.104 19.3947 5.17754 19.3369 5.23781 19.2665L10.2857 13.3665L15.1983 18.9505C15.5227 19.3191 15.9976 19.5128 16.4744 19.5128H17.8605C18.5009 19.5128 19.0491 19.1818 19.3275 18.6806C19.4761 18.4146 19.5376 18.1087 19.5033 17.8059C19.4691 17.5032 19.3408 17.2187 19.1366 16.9926L13.2244 10.2727L18.4031 4.22044Z" fill="white"/>
</svg>
