<svg width="19" height="19" viewBox="0 0 19 19" fill="none" xmlns="http://www.w3.org/2000/svg">
<path fill-rule="evenodd" clip-rule="evenodd" d="M9.02751 0.94043C13.4939 0.94043 17.1147 4.56126 17.1147 9.02767C17.1147 13.4941 13.4939 17.1149 9.02751 17.1149C7.62823 17.1149 6.31171 16.7591 5.16294 16.1332L1.59703 16.7312C1.50914 16.7459 1.41903 16.7395 1.33407 16.7127C1.24911 16.6858 1.17171 16.6392 1.10823 16.5767C1.04475 16.5141 0.996977 16.4375 0.96883 16.3529C0.940683 16.2684 0.93296 16.1784 0.946294 16.0903L1.54814 12.1106C1.14496 11.1329 0.938403 10.0853 0.940276 9.02767C0.940276 4.56126 4.5611 0.94043 9.02751 0.94043ZM5.97543 5.04047C5.42249 5.04047 4.96433 5.5069 5.0501 6.08316C5.21259 7.16347 5.69256 9.15405 7.12043 10.5925C8.61299 12.0963 10.7488 12.7395 11.9051 12.993C12.5039 13.1247 13.0147 12.6507 13.0147 12.0662V10.694C13.0147 10.6484 13.0009 10.6039 12.9752 10.5663C12.9494 10.5287 12.9128 10.4998 12.8703 10.4834L11.3958 9.91689C11.356 9.90166 11.3127 9.89801 11.2709 9.90635L9.78358 10.1967C8.82439 9.70022 8.24361 9.14352 7.8953 8.30471L8.17516 6.78882C8.18265 6.74848 8.17901 6.70687 8.16462 6.66845L7.61168 5.18717C7.59563 5.14421 7.56688 5.10716 7.52925 5.08096C7.49162 5.05475 7.44689 5.04063 7.40104 5.04047H5.97543Z" fill="white"/>
</svg>
