<svg width="23" height="23" viewBox="0 0 23 23" fill="none" xmlns="http://www.w3.org/2000/svg">
<path d="M17.5517 4.52395C16.7069 3.67088 15.7007 2.99448 14.5919 2.53417C13.483 2.07386 12.2937 1.83885 11.0931 1.84282C6.0625 1.84282 1.9625 5.94282 1.9625 10.9734C1.9625 12.5857 2.38632 14.152 3.17868 15.5341L1.88879 20.2698L6.72587 18.9983C8.06183 19.7262 9.56363 20.1132 11.0931 20.1132C16.1236 20.1132 20.2236 16.0132 20.2236 10.9826C20.2236 8.54103 19.2746 6.24687 17.5517 4.52395ZM11.0931 18.5653C9.72947 18.5653 8.39351 18.1968 7.2234 17.5057L6.947 17.3399L4.07239 18.0954L4.83711 15.2945L4.65284 15.0089C3.89507 13.7992 3.49279 12.4008 3.49194 10.9734C3.49194 6.79046 6.90093 3.38147 11.0838 3.38147C13.1108 3.38147 15.018 4.17383 16.4461 5.61114C17.1533 6.31492 17.7138 7.15213 18.095 8.0742C18.4761 8.99628 18.6704 9.98486 18.6665 10.9826C18.685 15.1655 15.276 18.5653 11.0931 18.5653ZM15.2576 12.8898C15.0272 12.7792 13.9032 12.2264 13.7005 12.1435C13.4886 12.0698 13.3412 12.0329 13.1845 12.2541C13.0279 12.4844 12.5949 13.0004 12.4659 13.1478C12.3369 13.3044 12.1987 13.3228 11.9683 13.203C11.738 13.0925 11.0009 12.8437 10.1349 12.0698C9.45306 11.4617 9.0016 10.7154 8.8634 10.4851C8.73441 10.2547 8.84497 10.135 8.96475 10.0152C9.0661 9.91383 9.19509 9.74799 9.30565 9.619C9.41621 9.49001 9.46228 9.38867 9.53599 9.24125C9.60969 9.08462 9.57284 8.95563 9.51756 8.84507C9.46228 8.73451 9.0016 7.61046 8.81733 7.14979C8.63306 6.70754 8.43958 6.76282 8.30138 6.75361H7.85913C7.7025 6.75361 7.46295 6.80889 7.25104 7.03923C7.04834 7.26956 6.45868 7.82237 6.45868 8.94642C6.45868 10.0705 7.27868 11.1577 7.38924 11.3051C7.49981 11.4617 9.0016 13.7651 11.2865 14.7509C11.8301 14.9905 12.254 15.1287 12.5856 15.23C13.1292 15.4051 13.6268 15.3774 14.023 15.3221C14.4652 15.2577 15.3773 14.7693 15.5616 14.235C15.7551 13.7006 15.7551 13.2491 15.6906 13.1478C15.6261 13.0464 15.4879 13.0004 15.2576 12.8898Z" fill="white"/>
</svg>
